<svg xmlns="http://www.w3.org/2000/svg" xmlns:xlink="http://www.w3.org/1999/xlink" width="212" zoomAndPan="magnify" viewBox="0 0 159 148.499996" height="198" preserveAspectRatio="xMidYMid meet" version="1.0"><defs><g/><clipPath id="bd5ce5e9cd"><path d="M 66 0.242188 L 92 0.242188 L 92 37 L 66 37 Z M 66 0.242188 " clip-rule="nonzero"/></clipPath><clipPath id="2750e293f9"><path d="M 25.011719 1 L 92 1 L 92 68 L 25.011719 68 Z M 25.011719 1 " clip-rule="nonzero"/></clipPath><clipPath id="070018af89"><path d="M 91.925781 1.652344 C 91.957031 6.101562 91.4375 20.804688 84.210938 35.160156 C 81.933594 39.679688 78.992188 44.164062 75.195312 48.285156 C 65.347656 58.960938 49.734375 67.179688 25.011719 67.179688 L 25.011719 42.09375 C 43.246094 42.09375 56.519531 39.300781 66.1875 35.160156 C 69.628906 33.683594 72.617188 32.039062 75.203125 30.289062 C 90.410156 19.976562 91.867188 6.003906 91.925781 1.652344 Z M 91.925781 1.652344 " clip-rule="nonzero"/></clipPath><linearGradient x1="-0.000000983506" gradientTransform="matrix(0.278238, 0, 0, 0.278238, 25.013144, 0.293157)" y1="122.636002" x2="240.600007" gradientUnits="userSpaceOnUse" y2="122.636002" id="5068256756"><stop stop-opacity="1" stop-color="rgb(5.099487%, 50.999451%, 79.199219%)" offset="0"/><stop stop-opacity="1" stop-color="rgb(5.099487%, 50.999451%, 79.199219%)" offset="0.03125"/><stop stop-opacity="1" stop-color="rgb(5.102539%, 51.080322%, 79.237366%)" offset="0.046875"/><stop stop-opacity="1" stop-color="rgb(5.11322%, 51.304626%, 79.342651%)" offset="0.0625"/><stop stop-opacity="1" stop-color="rgb(5.125427%, 51.593018%, 79.478455%)" offset="0.078125"/><stop stop-opacity="1" stop-color="rgb(5.13916%, 51.881409%, 79.615784%)" offset="0.09375"/><stop stop-opacity="1" stop-color="rgb(5.151367%, 52.1698%, 79.751587%)" offset="0.109375"/><stop stop-opacity="1" stop-color="rgb(5.1651%, 52.458191%, 79.88739%)" offset="0.125"/><stop stop-opacity="1" stop-color="rgb(5.178833%, 52.746582%, 80.023193%)" offset="0.140625"/><stop stop-opacity="1" stop-color="rgb(5.19104%, 53.034973%, 80.158997%)" offset="0.15625"/><stop stop-opacity="1" stop-color="rgb(5.204773%, 53.323364%, 80.2948%)" offset="0.171875"/><stop stop-opacity="1" stop-color="rgb(5.21698%, 53.611755%, 80.430603%)" offset="0.1875"/><stop stop-opacity="1" stop-color="rgb(5.230713%, 53.900146%, 80.566406%)" offset="0.203125"/><stop stop-opacity="1" stop-color="rgb(5.244446%, 54.188538%, 80.703735%)" offset="0.21875"/><stop stop-opacity="1" stop-color="rgb(5.256653%, 54.476929%, 80.839539%)" offset="0.234375"/><stop stop-opacity="1" stop-color="rgb(5.270386%, 54.76532%, 80.975342%)" offset="0.25"/><stop stop-opacity="1" stop-color="rgb(5.282593%, 55.053711%, 81.111145%)" offset="0.265625"/><stop stop-opacity="1" stop-color="rgb(5.296326%, 55.342102%, 81.246948%)" offset="0.28125"/><stop stop-opacity="1" stop-color="rgb(5.310059%, 55.630493%, 81.382751%)" offset="0.296875"/><stop stop-opacity="1" stop-color="rgb(5.322266%, 55.918884%, 81.518555%)" offset="0.3125"/><stop stop-opacity="1" stop-color="rgb(5.335999%, 56.207275%, 81.654358%)" offset="0.328125"/><stop stop-opacity="1" stop-color="rgb(5.348206%, 56.495667%, 81.791687%)" offset="0.34375"/><stop stop-opacity="1" stop-color="rgb(5.361938%, 56.784058%, 81.92749%)" offset="0.359375"/><stop stop-opacity="1" stop-color="rgb(5.374146%, 57.072449%, 82.063293%)" offset="0.375"/><stop stop-opacity="1" stop-color="rgb(5.387878%, 57.36084%, 82.199097%)" offset="0.390625"/><stop stop-opacity="1" stop-color="rgb(5.401611%, 57.649231%, 82.3349%)" offset="0.40625"/><stop stop-opacity="1" stop-color="rgb(5.413818%, 57.937622%, 82.470703%)" offset="0.421875"/><stop stop-opacity="1" stop-color="rgb(5.427551%, 58.226013%, 82.606506%)" offset="0.4375"/><stop stop-opacity="1" stop-color="rgb(5.439758%, 58.514404%, 82.743835%)" offset="0.453125"/><stop stop-opacity="1" stop-color="rgb(5.453491%, 58.802795%, 82.879639%)" offset="0.46875"/><stop stop-opacity="1" stop-color="rgb(5.467224%, 59.091187%, 83.015442%)" offset="0.484375"/><stop stop-opacity="1" stop-color="rgb(5.479431%, 59.379578%, 83.151245%)" offset="0.5"/><stop stop-opacity="1" stop-color="rgb(5.493164%, 59.667969%, 83.287048%)" offset="0.515625"/><stop stop-opacity="1" stop-color="rgb(5.505371%, 59.95636%, 83.422852%)" offset="0.53125"/><stop stop-opacity="1" stop-color="rgb(5.519104%, 60.244751%, 83.558655%)" offset="0.546875"/><stop stop-opacity="1" stop-color="rgb(5.532837%, 60.533142%, 83.694458%)" offset="0.5625"/><stop stop-opacity="1" stop-color="rgb(5.545044%, 60.821533%, 83.831787%)" offset="0.578125"/><stop stop-opacity="1" stop-color="rgb(5.558777%, 61.109924%, 83.96759%)" offset="0.59375"/><stop stop-opacity="1" stop-color="rgb(5.570984%, 61.398315%, 84.103394%)" offset="0.609375"/><stop stop-opacity="1" stop-color="rgb(5.584717%, 61.686707%, 84.239197%)" offset="0.625"/><stop stop-opacity="1" stop-color="rgb(5.59845%, 61.975098%, 84.375%)" offset="0.640625"/><stop stop-opacity="1" stop-color="rgb(5.610657%, 62.263489%, 84.510803%)" offset="0.65625"/><stop stop-opacity="1" stop-color="rgb(5.62439%, 62.55188%, 84.646606%)" offset="0.671875"/><stop stop-opacity="1" stop-color="rgb(5.636597%, 62.840271%, 84.78241%)" offset="0.6875"/><stop stop-opacity="1" stop-color="rgb(5.65033%, 63.128662%, 84.919739%)" offset="0.703125"/><stop stop-opacity="1" stop-color="rgb(5.662537%, 63.417053%, 85.055542%)" offset="0.71875"/><stop stop-opacity="1" stop-color="rgb(5.67627%, 63.705444%, 85.191345%)" offset="0.734375"/><stop stop-opacity="1" stop-color="rgb(5.690002%, 63.993835%, 85.327148%)" offset="0.75"/><stop stop-opacity="1" stop-color="rgb(5.702209%, 64.282227%, 85.462952%)" offset="0.765625"/><stop stop-opacity="1" stop-color="rgb(5.715942%, 64.570618%, 85.598755%)" offset="0.78125"/><stop stop-opacity="1" stop-color="rgb(5.728149%, 64.859009%, 85.734558%)" offset="0.796875"/><stop stop-opacity="1" stop-color="rgb(5.741882%, 65.1474%, 85.871887%)" offset="0.8125"/><stop stop-opacity="1" stop-color="rgb(5.755615%, 65.435791%, 86.00769%)" offset="0.828125"/><stop stop-opacity="1" stop-color="rgb(5.767822%, 65.724182%, 86.143494%)" offset="0.84375"/><stop stop-opacity="1" stop-color="rgb(5.781555%, 66.012573%, 86.279297%)" offset="0.859375"/><stop stop-opacity="1" stop-color="rgb(5.793762%, 66.300964%, 86.4151%)" offset="0.875"/><stop stop-opacity="1" stop-color="rgb(5.807495%, 66.589355%, 86.550903%)" offset="0.890625"/><stop stop-opacity="1" stop-color="rgb(5.821228%, 66.877747%, 86.686707%)" offset="0.90625"/><stop stop-opacity="1" stop-color="rgb(5.833435%, 67.166138%, 86.82251%)" offset="0.921875"/><stop stop-opacity="1" stop-color="rgb(5.847168%, 67.454529%, 86.959839%)" offset="0.9375"/><stop stop-opacity="1" stop-color="rgb(5.859375%, 67.74292%, 87.095642%)" offset="0.953125"/><stop stop-opacity="1" stop-color="rgb(5.873108%, 68.031311%, 87.231445%)" offset="0.96875"/><stop stop-opacity="1" stop-color="rgb(5.886841%, 68.319702%, 87.367249%)" offset="0.984375"/><stop stop-opacity="1" stop-color="rgb(5.895996%, 68.531799%, 87.467957%)" offset="1"/></linearGradient><clipPath id="be86eec8fd"><path d="M 66 64 L 92 64 L 92 100.40625 L 66 100.40625 Z M 66 64 " clip-rule="nonzero"/></clipPath><clipPath id="2e79e3c39b"><path d="M 66 33 L 133.398438 33 L 133.398438 100 L 66 100 Z M 66 33 " clip-rule="nonzero"/></clipPath><clipPath id="e12cac4ae5"><path d="M 66.824219 99.261719 C 66.792969 94.8125 67.3125 80.109375 74.539062 65.75 C 76.816406 61.234375 79.757812 56.75 83.558594 52.628906 C 93.402344 41.953125 109.015625 33.734375 133.742188 33.734375 L 133.742188 58.816406 C 115.507812 58.816406 102.234375 61.609375 92.566406 65.75 C 89.125 67.230469 86.136719 68.875 83.550781 70.625 C 68.34375 80.9375 66.886719 94.914062 66.824219 99.261719 Z M 66.824219 99.261719 " clip-rule="nonzero"/></clipPath><linearGradient x1="168.661353" gradientTransform="matrix(-0.278238, 0, 0, -0.278238, 180.326215, 55.989742)" y1="-37.771" x2="408.042057" gradientUnits="userSpaceOnUse" y2="-37.771" id="e3881340fe"><stop stop-opacity="1" stop-color="rgb(5.099487%, 50.999451%, 79.199219%)" offset="0"/><stop stop-opacity="1" stop-color="rgb(5.099487%, 50.999451%, 79.199219%)" offset="0.03125"/><stop stop-opacity="1" stop-color="rgb(5.104065%, 51.124573%, 79.258728%)" offset="0.046875"/><stop stop-opacity="1" stop-color="rgb(5.116272%, 51.394653%, 79.385376%)" offset="0.0625"/><stop stop-opacity="1" stop-color="rgb(5.130005%, 51.681519%, 79.521179%)" offset="0.078125"/><stop stop-opacity="1" stop-color="rgb(5.142212%, 51.968384%, 79.655457%)" offset="0.09375"/><stop stop-opacity="1" stop-color="rgb(5.155945%, 52.255249%, 79.79126%)" offset="0.109375"/><stop stop-opacity="1" stop-color="rgb(5.169678%, 52.542114%, 79.927063%)" offset="0.125"/><stop stop-opacity="1" stop-color="rgb(5.181885%, 52.828979%, 80.06134%)" offset="0.140625"/><stop stop-opacity="1" stop-color="rgb(5.195618%, 53.115845%, 80.197144%)" offset="0.15625"/><stop stop-opacity="1" stop-color="rgb(5.207825%, 53.40271%, 80.332947%)" offset="0.171875"/><stop stop-opacity="1" stop-color="rgb(5.221558%, 53.689575%, 80.467224%)" offset="0.1875"/><stop stop-opacity="1" stop-color="rgb(5.233765%, 53.97644%, 80.603027%)" offset="0.203125"/><stop stop-opacity="1" stop-color="rgb(5.247498%, 54.263306%, 80.738831%)" offset="0.21875"/><stop stop-opacity="1" stop-color="rgb(5.259705%, 54.550171%, 80.873108%)" offset="0.234375"/><stop stop-opacity="1" stop-color="rgb(5.273438%, 54.837036%, 81.008911%)" offset="0.25"/><stop stop-opacity="1" stop-color="rgb(5.285645%, 55.123901%, 81.144714%)" offset="0.265625"/><stop stop-opacity="1" stop-color="rgb(5.299377%, 55.410767%, 81.278992%)" offset="0.28125"/><stop stop-opacity="1" stop-color="rgb(5.31311%, 55.697632%, 81.414795%)" offset="0.296875"/><stop stop-opacity="1" stop-color="rgb(5.325317%, 55.986023%, 81.550598%)" offset="0.3125"/><stop stop-opacity="1" stop-color="rgb(5.33905%, 56.272888%, 81.684875%)" offset="0.328125"/><stop stop-opacity="1" stop-color="rgb(5.351257%, 56.559753%, 81.820679%)" offset="0.34375"/><stop stop-opacity="1" stop-color="rgb(5.36499%, 56.846619%, 81.956482%)" offset="0.359375"/><stop stop-opacity="1" stop-color="rgb(5.377197%, 57.133484%, 82.090759%)" offset="0.375"/><stop stop-opacity="1" stop-color="rgb(5.39093%, 57.420349%, 82.226562%)" offset="0.390625"/><stop stop-opacity="1" stop-color="rgb(5.403137%, 57.707214%, 82.362366%)" offset="0.40625"/><stop stop-opacity="1" stop-color="rgb(5.41687%, 57.99408%, 82.496643%)" offset="0.421875"/><stop stop-opacity="1" stop-color="rgb(5.429077%, 58.280945%, 82.632446%)" offset="0.4375"/><stop stop-opacity="1" stop-color="rgb(5.44281%, 58.56781%, 82.76825%)" offset="0.453125"/><stop stop-opacity="1" stop-color="rgb(5.456543%, 58.854675%, 82.902527%)" offset="0.46875"/><stop stop-opacity="1" stop-color="rgb(5.46875%, 59.141541%, 83.03833%)" offset="0.484375"/><stop stop-opacity="1" stop-color="rgb(5.482483%, 59.428406%, 83.174133%)" offset="0.5"/><stop stop-opacity="1" stop-color="rgb(5.49469%, 59.715271%, 83.308411%)" offset="0.515625"/><stop stop-opacity="1" stop-color="rgb(5.508423%, 60.002136%, 83.444214%)" offset="0.53125"/><stop stop-opacity="1" stop-color="rgb(5.52063%, 60.289001%, 83.580017%)" offset="0.546875"/><stop stop-opacity="1" stop-color="rgb(5.534363%, 60.575867%, 83.71582%)" offset="0.5625"/><stop stop-opacity="1" stop-color="rgb(5.54657%, 60.862732%, 83.850098%)" offset="0.578125"/><stop stop-opacity="1" stop-color="rgb(5.560303%, 61.149597%, 83.985901%)" offset="0.59375"/><stop stop-opacity="1" stop-color="rgb(5.57251%, 61.436462%, 84.121704%)" offset="0.609375"/><stop stop-opacity="1" stop-color="rgb(5.586243%, 61.723328%, 84.255981%)" offset="0.625"/><stop stop-opacity="1" stop-color="rgb(5.599976%, 62.010193%, 84.391785%)" offset="0.640625"/><stop stop-opacity="1" stop-color="rgb(5.612183%, 62.297058%, 84.527588%)" offset="0.65625"/><stop stop-opacity="1" stop-color="rgb(5.625916%, 62.583923%, 84.661865%)" offset="0.671875"/><stop stop-opacity="1" stop-color="rgb(5.638123%, 62.870789%, 84.797668%)" offset="0.6875"/><stop stop-opacity="1" stop-color="rgb(5.651855%, 63.15918%, 84.933472%)" offset="0.703125"/><stop stop-opacity="1" stop-color="rgb(5.664062%, 63.446045%, 85.067749%)" offset="0.71875"/><stop stop-opacity="1" stop-color="rgb(5.677795%, 63.73291%, 85.203552%)" offset="0.734375"/><stop stop-opacity="1" stop-color="rgb(5.690002%, 64.019775%, 85.339355%)" offset="0.75"/><stop stop-opacity="1" stop-color="rgb(5.703735%, 64.306641%, 85.473633%)" offset="0.765625"/><stop stop-opacity="1" stop-color="rgb(5.717468%, 64.593506%, 85.609436%)" offset="0.78125"/><stop stop-opacity="1" stop-color="rgb(5.729675%, 64.880371%, 85.745239%)" offset="0.796875"/><stop stop-opacity="1" stop-color="rgb(5.743408%, 65.167236%, 85.879517%)" offset="0.8125"/><stop stop-opacity="1" stop-color="rgb(5.755615%, 65.454102%, 86.01532%)" offset="0.828125"/><stop stop-opacity="1" stop-color="rgb(5.769348%, 65.740967%, 86.151123%)" offset="0.84375"/><stop stop-opacity="1" stop-color="rgb(5.781555%, 66.027832%, 86.2854%)" offset="0.859375"/><stop stop-opacity="1" stop-color="rgb(5.795288%, 66.314697%, 86.421204%)" offset="0.875"/><stop stop-opacity="1" stop-color="rgb(5.807495%, 66.601562%, 86.557007%)" offset="0.890625"/><stop stop-opacity="1" stop-color="rgb(5.821228%, 66.888428%, 86.691284%)" offset="0.90625"/><stop stop-opacity="1" stop-color="rgb(5.833435%, 67.175293%, 86.827087%)" offset="0.921875"/><stop stop-opacity="1" stop-color="rgb(5.847168%, 67.462158%, 86.962891%)" offset="0.9375"/><stop stop-opacity="1" stop-color="rgb(5.860901%, 67.749023%, 87.097168%)" offset="0.953125"/><stop stop-opacity="1" stop-color="rgb(5.873108%, 68.035889%, 87.232971%)" offset="0.96875"/><stop stop-opacity="1" stop-color="rgb(5.886841%, 68.322754%, 87.368774%)" offset="0.984375"/><stop stop-opacity="1" stop-color="rgb(5.895996%, 68.531799%, 87.467957%)" offset="1"/></linearGradient></defs><g clip-path="url(#bd5ce5e9cd)"><path fill="#0a54b6" d="M 66.820312 36.285156 L 66.820312 0.292969 L 91.933594 0.292969 C 91.933594 0.292969 92.269531 17.140625 85.847656 23.925781 C 79.425781 30.714844 66.820312 36.285156 66.820312 36.285156 Z M 66.820312 36.285156 " fill-opacity="1" fill-rule="nonzero"/></g><g clip-path="url(#2750e293f9)"><g clip-path="url(#070018af89)"><path fill="url(#5068256756)" d="M 25.011719 1.652344 L 25.011719 67.179688 L 91.957031 67.179688 L 91.957031 1.652344 Z M 25.011719 1.652344 " fill-rule="nonzero"/></g></g><g clip-path="url(#be86eec8fd)"><path fill="#0a54b6" d="M 91.933594 64.628906 L 91.933594 100.621094 L 66.820312 100.621094 C 66.820312 100.621094 66.484375 83.773438 72.90625 76.988281 C 79.328125 70.203125 91.933594 64.628906 91.933594 64.628906 Z M 91.933594 64.628906 " fill-opacity="1" fill-rule="nonzero"/></g><g clip-path="url(#2e79e3c39b)"><g clip-path="url(#e12cac4ae5)"><path fill="url(#e3881340fe)" d="M 133.398438 99.261719 L 133.398438 33.734375 L 66.792969 33.734375 L 66.792969 99.261719 Z M 133.398438 99.261719 " fill-rule="nonzero"/></g></g><g fill="#0e98d4" fill-opacity="1"><g transform="translate(12.315947, 132.4698)"><g><path d="M 4.65625 -19.28125 L 9.140625 -19.28125 L 6 -3.640625 L 15.671875 -3.640625 L 14.9375 0 L 0.796875 0 Z M 4.65625 -19.28125 "/></g></g></g><g fill="#0e98d4" fill-opacity="1"><g transform="translate(30.795681, 132.4698)"><g><path d="M 3.46875 -14.8125 L 7.734375 -14.8125 L 4.796875 0 L 0.515625 0 Z M 6.328125 -16.890625 C 5.597656 -16.890625 5 -17.101562 4.53125 -17.53125 C 4.0625 -17.96875 3.828125 -18.5 3.828125 -19.125 C 3.828125 -19.851562 4.085938 -20.457031 4.609375 -20.9375 C 5.128906 -21.425781 5.8125 -21.671875 6.65625 -21.671875 C 7.414062 -21.671875 8.023438 -21.460938 8.484375 -21.046875 C 8.953125 -20.640625 9.1875 -20.132812 9.1875 -19.53125 C 9.1875 -18.738281 8.921875 -18.097656 8.390625 -17.609375 C 7.859375 -17.128906 7.171875 -16.890625 6.328125 -16.890625 Z M 6.328125 -16.890625 "/></g></g></g><g fill="#0e98d4" fill-opacity="1"><g transform="translate(40.90322, 132.4698)"><g><path d="M 10.578125 -17.265625 C 9.921875 -17.265625 9.398438 -17.085938 9.015625 -16.734375 C 8.640625 -16.378906 8.378906 -15.816406 8.234375 -15.046875 L 8.125 -14.484375 L 11.90625 -14.484375 L 11.234375 -11.1875 L 7.578125 -11.1875 L 5.34375 0 L 1.046875 0 L 3.28125 -11.1875 L 0.96875 -11.1875 L 1.625 -14.484375 L 3.9375 -14.484375 L 4.109375 -15.34375 C 4.453125 -17 5.171875 -18.296875 6.265625 -19.234375 C 7.359375 -20.179688 8.785156 -20.65625 10.546875 -20.65625 C 11.210938 -20.65625 11.84375 -20.582031 12.4375 -20.4375 C 13.03125 -20.289062 13.539062 -20.085938 13.96875 -19.828125 L 12.28125 -16.75 C 11.820312 -17.09375 11.253906 -17.265625 10.578125 -17.265625 Z M 10.578125 -17.265625 "/></g></g></g><g fill="#0e98d4" fill-opacity="1"><g transform="translate(53.406751, 132.4698)"><g><path d="M 16.609375 -8.515625 C 16.609375 -7.835938 16.523438 -7.082031 16.359375 -6.25 L 5.015625 -6.25 C 5.160156 -4.226562 6.4375 -3.21875 8.84375 -3.21875 C 9.59375 -3.21875 10.3125 -3.335938 11 -3.578125 C 11.6875 -3.816406 12.289062 -4.15625 12.8125 -4.59375 L 14.59375 -1.765625 C 13.769531 -1.097656 12.828125 -0.597656 11.765625 -0.265625 C 10.703125 0.0546875 9.582031 0.21875 8.40625 0.21875 C 6.875 0.21875 5.535156 -0.0507812 4.390625 -0.59375 C 3.242188 -1.132812 2.363281 -1.910156 1.75 -2.921875 C 1.132812 -3.929688 0.828125 -5.097656 0.828125 -6.421875 C 0.828125 -8.054688 1.195312 -9.53125 1.9375 -10.84375 C 2.6875 -12.15625 3.722656 -13.179688 5.046875 -13.921875 C 6.367188 -14.671875 7.875 -15.046875 9.5625 -15.046875 C 10.988281 -15.046875 12.226562 -14.773438 13.28125 -14.234375 C 14.34375 -13.703125 15.160156 -12.941406 15.734375 -11.953125 C 16.316406 -10.960938 16.609375 -9.816406 16.609375 -8.515625 Z M 9.359375 -11.8125 C 8.347656 -11.8125 7.492188 -11.539062 6.796875 -11 C 6.097656 -10.457031 5.601562 -9.710938 5.3125 -8.765625 L 12.671875 -8.765625 C 12.671875 -9.710938 12.367188 -10.457031 11.765625 -11 C 11.171875 -11.539062 10.367188 -11.8125 9.359375 -11.8125 Z M 9.359375 -11.8125 "/></g></g></g><g fill="#0e98d4" fill-opacity="1"><g transform="translate(72.547445, 132.4698)"><g><path d="M 10.9375 0.328125 C 9.007812 0.328125 7.320312 -0.0195312 5.875 -0.71875 C 4.4375 -1.414062 3.332031 -2.394531 2.5625 -3.65625 C 1.789062 -4.925781 1.40625 -6.390625 1.40625 -8.046875 C 1.40625 -10.234375 1.90625 -12.203125 2.90625 -13.953125 C 3.90625 -15.703125 5.3125 -17.082031 7.125 -18.09375 C 8.945312 -19.101562 11.035156 -19.609375 13.390625 -19.609375 C 15.117188 -19.609375 16.640625 -19.3125 17.953125 -18.71875 C 19.273438 -18.132812 20.28125 -17.296875 20.96875 -16.203125 L 17.734375 -13.546875 C 16.710938 -15.054688 15.160156 -15.8125 13.078125 -15.8125 C 11.671875 -15.8125 10.425781 -15.476562 9.34375 -14.8125 C 8.257812 -14.15625 7.414062 -13.253906 6.8125 -12.109375 C 6.21875 -10.972656 5.921875 -9.707031 5.921875 -8.3125 C 5.921875 -6.832031 6.394531 -5.65625 7.34375 -4.78125 C 8.289062 -3.90625 9.617188 -3.46875 11.328125 -3.46875 C 13.359375 -3.46875 15.066406 -4.210938 16.453125 -5.703125 L 19.09375 -3 C 17.175781 -0.78125 14.457031 0.328125 10.9375 0.328125 Z M 10.9375 0.328125 "/></g></g></g><g fill="#0e98d4" fill-opacity="1"><g transform="translate(94.579847, 132.4698)"><g><path d="M 18.515625 -14.8125 L 15.5625 0 L 11.484375 0 L 11.765625 -1.453125 C 10.535156 -0.335938 9.019531 0.21875 7.21875 0.21875 C 6.0625 0.21875 4.992188 -0.046875 4.015625 -0.578125 C 3.046875 -1.109375 2.269531 -1.875 1.6875 -2.875 C 1.113281 -3.875 0.828125 -5.054688 0.828125 -6.421875 C 0.828125 -8.054688 1.1875 -9.53125 1.90625 -10.84375 C 2.632812 -12.15625 3.625 -13.179688 4.875 -13.921875 C 6.125 -14.671875 7.503906 -15.046875 9.015625 -15.046875 C 11.285156 -15.046875 12.890625 -14.300781 13.828125 -12.8125 L 14.21875 -14.8125 Z M 8.546875 -3.328125 C 9.390625 -3.328125 10.140625 -3.535156 10.796875 -3.953125 C 11.460938 -4.367188 11.976562 -4.941406 12.34375 -5.671875 C 12.707031 -6.410156 12.890625 -7.253906 12.890625 -8.203125 C 12.890625 -9.210938 12.585938 -10.007812 11.984375 -10.59375 C 11.390625 -11.1875 10.5625 -11.484375 9.5 -11.484375 C 8.65625 -11.484375 7.898438 -11.273438 7.234375 -10.859375 C 6.578125 -10.453125 6.066406 -9.878906 5.703125 -9.140625 C 5.335938 -8.410156 5.15625 -7.566406 5.15625 -6.609375 C 5.15625 -5.597656 5.453125 -4.796875 6.046875 -4.203125 C 6.640625 -3.617188 7.472656 -3.328125 8.546875 -3.328125 Z M 8.546875 -3.328125 "/></g></g></g><g fill="#0e98d4" fill-opacity="1"><g transform="translate(115.42803, 132.4698)"><g><path d="M 7.1875 -13.0625 C 7.832031 -13.757812 8.609375 -14.265625 9.515625 -14.578125 C 10.421875 -14.890625 11.492188 -15.046875 12.734375 -15.046875 L 11.953125 -11.078125 C 11.441406 -11.109375 11.113281 -11.125 10.96875 -11.125 C 9.664062 -11.125 8.625 -10.800781 7.84375 -10.15625 C 7.0625 -9.519531 6.53125 -8.519531 6.25 -7.15625 L 4.828125 0 L 0.515625 0 L 3.46875 -14.8125 L 7.546875 -14.8125 Z M 7.1875 -13.0625 "/></g></g></g><g fill="#0e98d4" fill-opacity="1"><g transform="translate(129.143325, 132.4698)"><g><path d="M 16.609375 -8.515625 C 16.609375 -7.835938 16.523438 -7.082031 16.359375 -6.25 L 5.015625 -6.25 C 5.160156 -4.226562 6.4375 -3.21875 8.84375 -3.21875 C 9.59375 -3.21875 10.3125 -3.335938 11 -3.578125 C 11.6875 -3.816406 12.289062 -4.15625 12.8125 -4.59375 L 14.59375 -1.765625 C 13.769531 -1.097656 12.828125 -0.597656 11.765625 -0.265625 C 10.703125 0.0546875 9.582031 0.21875 8.40625 0.21875 C 6.875 0.21875 5.535156 -0.0507812 4.390625 -0.59375 C 3.242188 -1.132812 2.363281 -1.910156 1.75 -2.921875 C 1.132812 -3.929688 0.828125 -5.097656 0.828125 -6.421875 C 0.828125 -8.054688 1.195312 -9.53125 1.9375 -10.84375 C 2.6875 -12.15625 3.722656 -13.179688 5.046875 -13.921875 C 6.367188 -14.671875 7.875 -15.046875 9.5625 -15.046875 C 10.988281 -15.046875 12.226562 -14.773438 13.28125 -14.234375 C 14.34375 -13.703125 15.160156 -12.941406 15.734375 -11.953125 C 16.316406 -10.960938 16.609375 -9.816406 16.609375 -8.515625 Z M 9.359375 -11.8125 C 8.347656 -11.8125 7.492188 -11.539062 6.796875 -11 C 6.097656 -10.457031 5.601562 -9.710938 5.3125 -8.765625 L 12.671875 -8.765625 C 12.671875 -9.710938 12.367188 -10.457031 11.765625 -11 C 11.171875 -11.539062 10.367188 -11.8125 9.359375 -11.8125 Z M 9.359375 -11.8125 "/></g></g></g></svg>